# xmcd
#
# Track frame offsets: 
#        150
#        21815
#        40550
#        60202
#        75612
#        96885
#        113722
#        132565
#        149000
#        166020
#        189300
#        205045
#        222225
#        236157
#
# Disc length: 3326 seconds
#
# Revision: 0
# Processed by: cddbd v1.5.1PL0 Copyright (c) Steve Scherf et al.
# Submitted via: ExactAudioCopy v0.95a5
#
DISCID=b80cfc0e
DTITLE=Mike Benjamin - Never Too Late
DYEAR=2001
DGENRE=Blues
TTITLE0=Never Too Late
TTITLE1=Town of Angels
TTITLE2=Next to You
TTITLE3=Simple Love
TTITLE4=On My Street
TTITLE5=Swept Away
TTITLE6=Missin' You
TTITLE7=$13 Check
TTITLE8=Talk to Me
TTITLE9=Closer I Get to You
TTITLE10=Hey La Hey
TTITLE11=Traffic in Paradise
TTITLE12=Gone
TTITLE13=Nashaquitsa Way
EXTD=
EXTT0=
EXTT1=
EXTT2=
EXTT3=
EXTT4=
EXTT5=
EXTT6=
EXTT7=
EXTT8=
EXTT9=
EXTT10=
EXTT11=
EXTT12=
EXTT13=
PLAYORDER=
